<svg width="512" height="512" xmlns="http://www.w3.org/2000/svg">
 <g>
  <title>Layer 1</title>
  <rect id="svg_3" height="512" width="512" y="0" x="0" stroke-width="0" stroke="#000" fill="#191919"/>
  <path fill="#56aaff" stroke="#000" stroke-width="0" opacity="NaN" d="m171,147l42,7l0,82l88,-1l-1,-89l42,6l1,210l-43,-6l4,-80l-88,-4l-5,94l-38,11l-2,-230z" id="svg_1"/>
  <g id="svg_4">
   <rect fill="#56aaff" stroke="#000" stroke-width="0" x="384.11656" y="15.14695" width="13" height="139.75725" id="svg_2" transform="rotate(12.3777, 390.617, 85.0256)"/>
   <rect fill="#56aaff" stroke="#000" stroke-width="0" x="423.11656" y="16.14695" width="13" height="139.75725" id="svg_6" transform="rotate(12.3777, 429.617, 86.026)"/>
   <rect fill="#56aaff" stroke="#000" stroke-width="0" x="409.11656" y="14.14695" width="13" height="103.75725" id="svg_7" transform="rotate(90, 415.617, 66.0256)"/>
   <rect fill="#56aaff" stroke="#000" stroke-width="0" x="401.11656" y="58.14695" width="13" height="103.75725" id="svg_8" transform="rotate(90, 407.617, 110.026)"/>
  </g>
 </g>

</svg>